<?xml version="1.0" encoding="utf-8"?>
<!-- Generator: Adobe Illustrator 26.0.0, SVG Export Plug-In . SVG Version: 6.00 Build 0)  -->
<svg version="1.1" id="图层_1" xmlns="http://www.w3.org/2000/svg" xmlns:xlink="http://www.w3.org/1999/xlink" x="0px" y="0px"
	 viewBox="0 0 116 33" style="enable-background:new 0 0 116 33;" xml:space="preserve">
<style type="text/css">
	.st0{fill:#FFFFFF;}
</style>
<g>
	<g>
		<path class="st0" d="M26.94,19.08c-1.34-1.34-1.23-1.3-3.14-1.3H11.74c-1.91,0-1.79-0.05-3.14,1.3c-0.73,0.73-5.02,5.02-6.44,6.44
			c1.49,3,3.77,5.45,6.52,7.13c1.65-1.65,6.59-6.59,7.41-7.41c0.67-0.68,0.97-0.94,1.34-1.05c0.12-0.04,0.21-0.06,0.33-0.06
			c0.12,0,0.21,0.02,0.33,0.06c0.37,0.11,0.66,0.37,1.34,1.05c0.82,0.82,5.77,5.77,7.41,7.41c2.75-1.68,5.04-4.13,6.53-7.13
			C31.96,24.1,27.67,19.81,26.94,19.08z"/>
		<path class="st0" d="M29.55,4.94c-3.28-3.01-7.51-4.58-11.78-4.58C13.5,0.36,9.28,1.93,6,4.94c-3.48,3.19-5.64,7.8-5.64,12.84
			h6.66c1.55,0,2.04-0.12,2.52-0.63c0.49-0.52,0.42-0.97,0.89-2.2c0.43-1.12,1.1-2.1,1.95-2.9c1.49-1.4,3.43-2.14,5.4-2.14
			c1.96,0,3.9,0.74,5.4,2.14c0.85,0.8,1.52,1.78,1.95,2.9c0.48,1.23,0.41,1.68,0.89,2.2c0.47,0.51,0.97,0.63,2.52,0.63h6.66
			C35.19,12.74,33.03,8.14,29.55,4.94z"/>
	</g>
	<g>
		<g>
			<path class="st0" d="M70.35,16.33c3.57,0,6.47-2.87,6.47-6.39c0-3.53-2.9-6.39-6.47-6.39c-3.57,0-6.47,2.87-6.47,6.39
				C63.88,13.46,66.78,16.33,70.35,16.33z M70.35,6.64c1.84,0,3.34,1.48,3.34,3.3c0,1.82-1.5,3.3-3.34,3.3
				c-1.84,0-3.34-1.48-3.34-3.3C67.01,8.12,68.51,6.64,70.35,6.64z"/>
			<path class="st0" d="M61.6,3.88c-0.67,0-1.34,0-2,0c-0.18,0-0.3,0-0.44,0.04c-0.13,0.04-0.24,0.11-0.34,0.2
				c-0.1,0.1-0.17,0.21-0.2,0.34c-0.04,0.14-0.04,0.26-0.04,0.44c0,3.7,0,7.4,0,11.1c1.01,0,2.02,0,3.03,0
				C61.6,11.96,61.6,7.92,61.6,3.88z"/>
			<path class="st0" d="M45.88,15.95c0.13-0.04,0.24-0.11,0.34-0.2c0.1-0.1,0.17-0.21,0.2-0.34c0.04-0.14,0.04-0.26,0.04-0.44
				c0-2.14,0-4.28,0-6.42c2,2.28,4,4.56,6,6.84c0.19,0.21,0.34,0.38,0.59,0.49C53.3,15.99,53.52,16,53.81,16c0.74,0,1.47,0,2.21,0
				c0-4.04,0-8.08,0-12.12c-0.67,0-1.34,0-2.01,0c-0.18,0-0.3,0-0.44,0.04c-0.13,0.04-0.24,0.11-0.34,0.2
				c-0.1,0.1-0.17,0.21-0.2,0.34c-0.04,0.14-0.04,0.26-0.04,0.44c0,2.14,0,4.28,0,6.42c-2-2.28-4-4.56-6-6.84
				c-0.19-0.21-0.34-0.38-0.59-0.49c-0.24-0.11-0.47-0.12-0.75-0.12c-0.74,0-1.47,0-2.21,0c0,4.04,0,8.08,0,12.12
				c0.67,0,1.34,0,2.01,0C45.62,16,45.75,16,45.88,15.95z"/>
		</g>
		<g>
			<path class="st0" d="M109.25,28.8c0-3.12,0-6.24,0-9.36h0c-0.67,0-1.34,0-2,0c-0.18,0-0.3,0-0.44,0.04
				c-0.13,0.04-0.24,0.11-0.34,0.2c-0.1,0.1-0.17,0.21-0.2,0.34c-0.04,0.14-0.04,0.26-0.04,0.44c0,0.58,0,1.16,0,1.73v9.36h2.98
				h0.05h6.39V28.8H109.25z"/>
			<path class="st0" d="M74.75,27.26c0.55-0.22,1.02-0.52,1.4-0.9c0.38-0.38,0.67-0.82,0.87-1.31c0.2-0.49,0.3-1.01,0.3-1.54
				c0-0.52-0.1-1.04-0.3-1.52c-0.2-0.49-0.49-0.92-0.87-1.29c-0.38-0.37-0.85-0.66-1.4-0.87c-0.55-0.21-1.18-0.32-1.88-0.32h-4.59
				v11.99h2.12c0.43,0,0.78-0.35,0.78-0.78v-3.13h1.69C73.57,27.59,74.21,27.48,74.75,27.26z M71.18,24.95l0-0.06l0-2.76h1.67
				c0.3,0,0.54,0.05,0.74,0.13c0.19,0.09,0.35,0.2,0.47,0.33c0.12,0.13,0.2,0.27,0.26,0.43c0.06,0.16,0.08,0.32,0.08,0.48
				c0,0.15-0.03,0.32-0.08,0.49c-0.05,0.16-0.15,0.32-0.27,0.47c-0.12,0.14-0.28,0.26-0.48,0.36c-0.19,0.09-0.43,0.14-0.71,0.14
				H71.18z"/>
			<path class="st0" d="M94.5,19.44h-7.11c-0.67,0-2.49,0-3.16,0c-0.18,0-0.3,0-0.44,0.04c-0.13,0.04-0.24,0.11-0.34,0.2
				c-0.1,0.1-0.17,0.21-0.2,0.34c-0.04,0.14-0.04,0.26-0.04,0.44c0,0.58,0,1.16,0,1.73h4.13v9.36h0.05h2.98V22.2h4.13V19.44z"/>
			<path class="st0" d="M79.32,19.48c-0.13,0.04-0.24,0.11-0.34,0.2c-0.1,0.1-0.17,0.21-0.2,0.34c-0.04,0.14-0.04,0.26-0.04,0.44
				c0,3.7,0,7.4,0,11.1c1.01,0,2.02,0,3.03,0c0-4.04,0-8.08,0-12.12c-0.67,0-1.34,0-2,0C79.59,19.44,79.46,19.44,79.32,19.48z"/>
			<path class="st0" d="M96.92,28.88h4.06l0.76,2.05c0.18,0.32,0.52,0.53,0.9,0.54h2.42l-4.52-11.36c-0.16-0.34-0.5-0.57-0.87-0.61
				c-0.07-0.01-0.15-0.01-0.23,0l-1.82,0l-4.77,11.98h2.36c0.43,0,0.82-0.25,1-0.64L96.92,28.88z M98.95,23.33l1.2,3.27l-2.4-0.01
				L98.95,23.33z"/>
			<path class="st0" d="M61.6,19.5c-0.07-0.01-0.15-0.01-0.23,0l-1.82,0l-4.77,11.98h2.36c0.43,0,0.82-0.25,1-0.64l0.72-1.96h4.06
				l0.76,2.05c0.18,0.32,0.52,0.53,0.9,0.54h2.42l-4.52-11.36C62.31,19.78,61.97,19.54,61.6,19.5z M59.7,26.59l1.19-3.26l1.2,3.27
				L59.7,26.59z"/>
			<path class="st0" d="M49.32,22.1c0.76,0,1.46,0.25,2.02,0.67c0.01,0.01,0.03,0.02,0.04,0.03c0.05,0.04,0.1,0.08,0.15,0.12
				c0.12,0.1,0.23,0.2,0.33,0.31l1.93-1.11l0.68-0.39c-1.16-1.57-3.01-2.59-5.11-2.61c-0.01,0-0.03,0-0.04,0
				c-3.53,0-6.39,2.86-6.39,6.38c0,0,0,0.01,0,0.01v0c0,3.53,2.86,6.39,6.39,6.39c0.01,0,0.03,0,0.04,0
				c2.1-0.01,3.95-1.04,5.11-2.61l-0.68-0.39l-1.93-1.11c-0.1,0.11-0.22,0.21-0.34,0.31c-0.04,0.03-0.08,0.07-0.12,0.1
				c-0.02,0.02-0.04,0.03-0.06,0.05c-0.56,0.42-1.26,0.67-2.02,0.67c-1.88,0-3.4-1.52-3.4-3.4C45.92,23.62,47.44,22.1,49.32,22.1z"
				/>
		</g>
	</g>
</g>
</svg>
